<svg width="33" height="31" viewBox="0 0 33 31" fill="none" xmlns="http://www.w3.org/2000/svg">
<path fill-rule="evenodd" clip-rule="evenodd" d="M10.2105 0.236993C9.42496 0.534201 8.48035 1.46655 8.01143 2.4072C6.81042 4.81685 6.98759 8.01801 8.43437 10.0504C8.93044 10.7474 9.30252 11.0685 10.0842 11.4744C10.821 11.8569 12.0318 11.8426 12.8092 11.4422C13.9394 10.8601 14.9687 9.38623 15.3679 7.77856C15.4868 7.29966 15.5479 6.60545 15.5434 5.78764C15.5315 3.67596 14.914 2.1244 13.6101 0.930332C12.5975 0.00311401 11.4478 -0.23142 10.2105 0.236993ZM20.6661 0.145712C19.6048 0.55582 18.9072 1.26095 18.2709 2.56661C17.6801 3.77892 17.4677 4.65962 17.4677 5.89682C17.4677 7.14855 17.6833 8.03493 18.2789 9.23293C19.0808 10.8455 20.0957 11.6613 21.4267 11.7628C23.2687 11.9033 25.0114 10.2955 25.6545 7.8622C25.9448 6.76399 25.8403 4.49093 25.4475 3.35615C24.9268 1.85198 24.1157 0.847131 22.993 0.315608C22.2638 -0.0296423 21.3018 -0.0998497 20.6661 0.145712ZM2.4447 9.46365C1.8324 9.68486 0.998927 10.4915 0.618867 11.2306C0.0134298 12.408 -0.170062 14.3021 0.167671 15.8875C0.67571 18.2717 2.56304 20.2004 4.38833 20.2004C4.77072 20.2004 5.22402 20.1485 5.39555 20.0851C7.08521 19.4605 8.24312 16.8863 7.87292 14.5772C7.38804 11.5522 5.67311 9.44159 3.60428 9.32356C3.17458 9.2991 2.76205 9.34889 2.4447 9.46365ZM28.517 9.43132C27.4327 9.78094 26.454 10.8124 25.7063 12.3935C25.1663 13.535 25.0429 14.0779 25.0429 15.3102C25.0429 16.9517 25.5137 18.3414 26.3855 19.2735C27.0417 19.9749 27.6778 20.2314 28.6385 20.1816C30.1459 20.1034 31.3078 19.2035 32.1923 17.4289C32.9914 15.8262 33.1721 14.5681 32.8465 12.8768C32.4157 10.6394 31.3206 9.44192 29.5984 9.3253C29.2518 9.30183 28.773 9.34878 28.517 9.43132ZM15.2367 13.6866C13.8757 14.1317 12.0949 15.4787 9.52026 18.0108C5.11433 22.3439 4.26666 23.7581 4.55487 26.2962C4.67864 27.3862 4.98634 28.2218 5.52109 28.9198C6.06547 29.6305 6.48863 29.9651 7.33108 30.3507C9.09565 31.1586 11.6179 31.0585 14.4586 30.0678C16.2424 29.4458 16.8111 29.3792 17.5636 29.7041C20.9033 31.1466 24.0586 31.4021 25.9574 30.3838C27.0227 29.8124 28.0348 28.4103 28.4252 26.965C28.7859 25.6295 28.5408 23.9138 27.8321 22.8132C27.0688 21.6279 24.0156 18.4312 22.0512 16.7607C20.5345 15.471 18.9472 14.3432 18.097 13.9511C17.2362 13.5542 15.9929 13.4393 15.2367 13.6866Z" fill="#4F46E5"/>
</svg>
